<?xml version="1.0" encoding="UTF-8"?>
<svg width="400" height="225" viewBox="0 0 400 225" xmlns="http://www.w3.org/2000/svg">
  <g transform="translate(100,50) scale(1.2)">
    <path d="M37.0088 42.3582H157.033C159.707 42.3582 162.169 43.4809 163.764 45.4273L184.275 70.0582C187.357 73.7843 184.677 79.3582 179.847 79.3582H59.8228C57.1486 79.3582 54.6871 78.2355 53.0918 76.2891L32.5807 51.6582C29.4991 47.9321 32.1787 42.3582 37.0088 42.3582Z" fill="#00E7FF"/>
    <path d="M37.0088 0H157.033C159.707 0 162.169 1.12273 163.764 3.06909L184.275 27.7C187.357 31.4261 184.677 37 179.847 37H59.8228C57.1486 37 54.6871 35.8773 53.0918 33.9309L32.5807 9.3C29.4991 5.57386 32.1787 0 37.0088 0Z" fill="#00E7FF"/>
    <path d="M37.0088 84.6418H157.033C159.707 84.6418 162.169 85.7645 163.764 87.7109L184.275 112.342C187.357 116.068 184.677 121.642 179.847 121.642H59.8228C57.1486 121.642 54.6871 120.519 53.0918 118.573L32.5807 93.9418C29.4991 90.2157 32.1787 84.6418 37.0088 84.6418Z" fill="#00E7FF"/>
  </g>
</svg>
